<mxfile host="app.diagrams.net" agent="Mozilla/5.0 (Windows NT 10.0; Win64; x64) AppleWebKit/537.36 (KHTML, like Gecko) Chrome/131.0.0.0 Safari/537.36" version="26.0.3">
  <diagram name="Page-1" id="7NpfqITMzVTPmXU77z18">
    <mxGraphModel dx="2515" dy="627" grid="0" gridSize="10" guides="1" tooltips="1" connect="1" arrows="1" fold="1" page="0" pageScale="1" pageWidth="1100" pageHeight="850" background="#FFFFFF" math="0" shadow="0">
      <root>
        <mxCell id="0" />
        <mxCell id="1" parent="0" />
        <mxCell id="CrBpAQbFGSPJNmV2kl8Q-6" value="" style="edgeStyle=orthogonalEdgeStyle;rounded=0;orthogonalLoop=1;jettySize=auto;html=1;startArrow=ERmany;startFill=0;endArrow=ERone;endFill=0;strokeColor=#457B9D;labelBackgroundColor=none;fontColor=default;strokeWidth=2;" parent="1" source="CrBpAQbFGSPJNmV2kl8Q-2" target="CrBpAQbFGSPJNmV2kl8Q-5" edge="1">
          <mxGeometry relative="1" as="geometry" />
        </mxCell>
        <mxCell id="CrBpAQbFGSPJNmV2kl8Q-11" value="" style="edgeStyle=orthogonalEdgeStyle;rounded=0;orthogonalLoop=1;jettySize=auto;html=1;startArrow=ERmany;startFill=0;endArrow=ERmany;endFill=0;strokeColor=#457B9D;labelBackgroundColor=none;fontColor=default;strokeWidth=2;" parent="1" source="CrBpAQbFGSPJNmV2kl8Q-2" target="CrBpAQbFGSPJNmV2kl8Q-9" edge="1">
          <mxGeometry relative="1" as="geometry" />
        </mxCell>
        <mxCell id="CrBpAQbFGSPJNmV2kl8Q-17" value="" style="edgeStyle=orthogonalEdgeStyle;rounded=0;orthogonalLoop=1;jettySize=auto;html=1;startArrow=ERmany;startFill=0;endArrow=ERone;endFill=0;strokeColor=#457B9D;labelBackgroundColor=none;fontColor=default;strokeWidth=2;" parent="1" source="CrBpAQbFGSPJNmV2kl8Q-2" target="CrBpAQbFGSPJNmV2kl8Q-15" edge="1">
          <mxGeometry relative="1" as="geometry" />
        </mxCell>
        <mxCell id="CrBpAQbFGSPJNmV2kl8Q-2" value="&lt;font style=&quot;font-size: 16px;&quot;&gt;&lt;b&gt;DOCTOR&lt;/b&gt;&lt;/font&gt;" style="swimlane;childLayout=stackLayout;horizontal=1;startSize=50;horizontalStack=0;rounded=1;fontSize=14;fontStyle=0;strokeWidth=2;resizeParent=0;resizeLast=1;shadow=0;dashed=0;align=center;arcSize=4;whiteSpace=wrap;html=1;fillColor=#e6d0de;strokeColor=#996185;labelBackgroundColor=none;gradientColor=#d5739d;" parent="1" vertex="1">
          <mxGeometry x="-480" y="167" width="160" height="120" as="geometry">
            <mxRectangle x="490" y="80" width="80" height="50" as="alternateBounds" />
          </mxGeometry>
        </mxCell>
        <mxCell id="CrBpAQbFGSPJNmV2kl8Q-7" value="&lt;font style=&quot;font-size: 14px;&quot;&gt;&lt;b&gt;CNP_DOCTOR#&lt;/b&gt;&lt;/font&gt;" style="text;html=1;align=center;verticalAlign=middle;resizable=0;points=[];autosize=1;strokeColor=none;fillColor=none;labelBackgroundColor=none;fontColor=#1D3557;" parent="CrBpAQbFGSPJNmV2kl8Q-2" vertex="1">
          <mxGeometry y="50" width="160" height="70" as="geometry" />
        </mxCell>
        <mxCell id="CrBpAQbFGSPJNmV2kl8Q-5" value="&lt;font style=&quot;font-size: 16px;&quot;&gt;&lt;b&gt;DEPARTAMENT&lt;/b&gt;&lt;/font&gt;" style="swimlane;childLayout=stackLayout;horizontal=1;startSize=50;horizontalStack=0;rounded=1;fontSize=14;fontStyle=0;strokeWidth=2;resizeParent=0;resizeLast=1;shadow=0;dashed=0;align=center;arcSize=4;whiteSpace=wrap;html=1;fillColor=#e6d0de;strokeColor=#996185;labelBackgroundColor=none;gradientColor=#d5739d;" parent="1" vertex="1">
          <mxGeometry x="-110" y="127" width="176" height="140" as="geometry" />
        </mxCell>
        <mxCell id="CrBpAQbFGSPJNmV2kl8Q-8" value="&lt;span style=&quot;font-size: 14px;&quot;&gt;&lt;b&gt;ID_DEPARTAMENT#&lt;/b&gt;&lt;/span&gt;" style="text;html=1;align=center;verticalAlign=middle;resizable=0;points=[];autosize=1;strokeColor=none;fillColor=none;labelBackgroundColor=none;fontColor=#1D3557;" parent="CrBpAQbFGSPJNmV2kl8Q-5" vertex="1">
          <mxGeometry y="50" width="176" height="90" as="geometry" />
        </mxCell>
        <mxCell id="CrBpAQbFGSPJNmV2kl8Q-25" value="" style="edgeStyle=orthogonalEdgeStyle;rounded=0;orthogonalLoop=1;jettySize=auto;html=1;startArrow=ERone;startFill=0;endArrow=ERmany;endFill=0;strokeColor=#457B9D;labelBackgroundColor=none;fontColor=default;strokeWidth=2;" parent="1" source="CrBpAQbFGSPJNmV2kl8Q-9" target="CrBpAQbFGSPJNmV2kl8Q-23" edge="1">
          <mxGeometry relative="1" as="geometry" />
        </mxCell>
        <mxCell id="CrBpAQbFGSPJNmV2kl8Q-28" value="" style="edgeStyle=orthogonalEdgeStyle;rounded=0;orthogonalLoop=1;jettySize=auto;html=1;startArrow=ERone;startFill=0;endArrow=ERmany;endFill=0;strokeColor=#457B9D;labelBackgroundColor=none;fontColor=default;strokeWidth=2;" parent="1" source="CrBpAQbFGSPJNmV2kl8Q-9" target="CrBpAQbFGSPJNmV2kl8Q-26" edge="1">
          <mxGeometry relative="1" as="geometry" />
        </mxCell>
        <mxCell id="CrBpAQbFGSPJNmV2kl8Q-9" value="&lt;font style=&quot;font-size: 16px;&quot;&gt;&lt;b&gt;PACIENT&lt;/b&gt;&lt;/font&gt;" style="swimlane;childLayout=stackLayout;horizontal=1;startSize=50;horizontalStack=0;rounded=1;fontSize=14;fontStyle=0;strokeWidth=2;resizeParent=0;resizeLast=1;shadow=0;dashed=0;align=center;arcSize=4;whiteSpace=wrap;html=1;fillColor=#e6d0de;strokeColor=#996185;labelBackgroundColor=none;gradientColor=#d5739d;" parent="1" vertex="1">
          <mxGeometry x="-800" y="167" width="160" height="120" as="geometry">
            <mxRectangle x="490" y="80" width="80" height="50" as="alternateBounds" />
          </mxGeometry>
        </mxCell>
        <mxCell id="CrBpAQbFGSPJNmV2kl8Q-10" value="&lt;font style=&quot;font-size: 14px;&quot;&gt;&lt;b&gt;CNP_PACIENT#&lt;/b&gt;&lt;/font&gt;" style="text;html=1;align=center;verticalAlign=middle;resizable=0;points=[];autosize=1;strokeColor=none;fillColor=none;labelBackgroundColor=none;fontColor=#1D3557;" parent="CrBpAQbFGSPJNmV2kl8Q-9" vertex="1">
          <mxGeometry y="50" width="160" height="70" as="geometry" />
        </mxCell>
        <mxCell id="CrBpAQbFGSPJNmV2kl8Q-15" value="&lt;font style=&quot;font-size: 16px;&quot;&gt;&lt;b&gt;PROGRAM&lt;/b&gt;&lt;/font&gt;" style="swimlane;childLayout=stackLayout;horizontal=1;startSize=50;horizontalStack=0;rounded=1;fontSize=14;fontStyle=0;strokeWidth=2;resizeParent=0;resizeLast=1;shadow=0;dashed=0;align=center;arcSize=4;whiteSpace=wrap;html=1;fillColor=#e6d0de;strokeColor=#996185;labelBackgroundColor=none;gradientColor=#d5739d;" parent="1" vertex="1">
          <mxGeometry x="-480" y="397" width="160" height="120" as="geometry">
            <mxRectangle x="490" y="80" width="80" height="50" as="alternateBounds" />
          </mxGeometry>
        </mxCell>
        <mxCell id="CrBpAQbFGSPJNmV2kl8Q-16" value="&lt;span style=&quot;font-size: 14px;&quot;&gt;&lt;b&gt;ID_PROGRAM#&lt;/b&gt;&lt;/span&gt;" style="text;html=1;align=center;verticalAlign=middle;resizable=0;points=[];autosize=1;strokeColor=none;fillColor=none;labelBackgroundColor=none;fontColor=#1D3557;" parent="CrBpAQbFGSPJNmV2kl8Q-15" vertex="1">
          <mxGeometry y="50" width="160" height="70" as="geometry" />
        </mxCell>
        <mxCell id="CrBpAQbFGSPJNmV2kl8Q-33" value="" style="edgeStyle=orthogonalEdgeStyle;rounded=0;orthogonalLoop=1;jettySize=auto;html=1;startArrow=ERone;startFill=0;endArrow=ERmany;endFill=0;strokeColor=#457B9D;labelBackgroundColor=none;fontColor=default;strokeWidth=2;" parent="1" source="CrBpAQbFGSPJNmV2kl8Q-23" target="CrBpAQbFGSPJNmV2kl8Q-31" edge="1">
          <mxGeometry relative="1" as="geometry" />
        </mxCell>
        <mxCell id="CrBpAQbFGSPJNmV2kl8Q-23" value="&lt;font style=&quot;font-size: 16px;&quot;&gt;&lt;b&gt;DIAGNOSTIC&lt;/b&gt;&lt;/font&gt;" style="swimlane;childLayout=stackLayout;horizontal=1;startSize=50;horizontalStack=0;rounded=1;fontSize=14;fontStyle=0;strokeWidth=2;resizeParent=0;resizeLast=1;shadow=0;dashed=0;align=center;arcSize=4;whiteSpace=wrap;html=1;fillColor=#e6d0de;strokeColor=#996185;labelBackgroundColor=none;gradientColor=#d5739d;" parent="1" vertex="1">
          <mxGeometry x="-800" y="392" width="160" height="120" as="geometry">
            <mxRectangle x="490" y="80" width="80" height="50" as="alternateBounds" />
          </mxGeometry>
        </mxCell>
        <mxCell id="CrBpAQbFGSPJNmV2kl8Q-24" value="&lt;font style=&quot;font-size: 14px;&quot;&gt;&lt;b&gt;ID_DIAGNOSTIC#&lt;/b&gt;&lt;/font&gt;" style="text;html=1;align=center;verticalAlign=middle;resizable=0;points=[];autosize=1;strokeColor=none;fillColor=none;labelBackgroundColor=none;fontColor=#1D3557;" parent="CrBpAQbFGSPJNmV2kl8Q-23" vertex="1">
          <mxGeometry y="50" width="160" height="70" as="geometry" />
        </mxCell>
        <mxCell id="CrBpAQbFGSPJNmV2kl8Q-26" value="&lt;font style=&quot;font-size: 16px;&quot;&gt;&lt;b&gt;ANALIZA&lt;/b&gt;&lt;/font&gt;" style="swimlane;childLayout=stackLayout;horizontal=1;startSize=50;horizontalStack=0;rounded=1;fontSize=14;fontStyle=0;strokeWidth=2;resizeParent=0;resizeLast=1;shadow=0;dashed=0;align=center;arcSize=4;whiteSpace=wrap;html=1;fillColor=#e6d0de;strokeColor=#996185;labelBackgroundColor=none;gradientColor=#d5739d;" parent="1" vertex="1">
          <mxGeometry x="-1100" y="167" width="160" height="120" as="geometry">
            <mxRectangle x="490" y="80" width="80" height="50" as="alternateBounds" />
          </mxGeometry>
        </mxCell>
        <mxCell id="CrBpAQbFGSPJNmV2kl8Q-27" value="&lt;font style=&quot;font-size: 14px;&quot;&gt;&lt;b&gt;ID_ANALIZA#&lt;/b&gt;&lt;/font&gt;" style="text;html=1;align=center;verticalAlign=middle;resizable=0;points=[];autosize=1;strokeColor=none;fillColor=none;labelBackgroundColor=none;fontColor=#1D3557;" parent="CrBpAQbFGSPJNmV2kl8Q-26" vertex="1">
          <mxGeometry y="50" width="160" height="70" as="geometry" />
        </mxCell>
        <mxCell id="CrBpAQbFGSPJNmV2kl8Q-31" value="&lt;font style=&quot;font-size: 16px;&quot;&gt;&lt;b&gt;TRATAMENT&lt;/b&gt;&lt;/font&gt;" style="swimlane;childLayout=stackLayout;horizontal=1;startSize=50;horizontalStack=0;rounded=1;fontSize=14;fontStyle=0;strokeWidth=2;resizeParent=0;resizeLast=1;shadow=0;dashed=0;align=center;arcSize=4;whiteSpace=wrap;html=1;fillColor=#e6d0de;strokeColor=#996185;labelBackgroundColor=none;gradientColor=#d5739d;" parent="1" vertex="1">
          <mxGeometry x="-800" y="617" width="160" height="120" as="geometry">
            <mxRectangle x="490" y="80" width="80" height="50" as="alternateBounds" />
          </mxGeometry>
        </mxCell>
        <mxCell id="CrBpAQbFGSPJNmV2kl8Q-32" value="&lt;font style=&quot;font-size: 14px;&quot;&gt;&lt;b&gt;ID_TRATAMENT#&lt;/b&gt;&lt;/font&gt;" style="text;html=1;align=center;verticalAlign=middle;resizable=0;points=[];autosize=1;strokeColor=none;fillColor=none;labelBackgroundColor=none;fontColor=#1D3557;" parent="CrBpAQbFGSPJNmV2kl8Q-31" vertex="1">
          <mxGeometry y="50" width="160" height="70" as="geometry" />
        </mxCell>
        <mxCell id="CrBpAQbFGSPJNmV2kl8Q-44" value="&lt;div&gt;&lt;font style=&quot;font-size: 14px;&quot;&gt;&lt;b&gt;face&lt;/b&gt;&lt;/font&gt;&lt;/div&gt;&lt;font style=&quot;font-size: 14px;&quot;&gt;&lt;b&gt;&lt;div&gt;&lt;font style=&quot;font-size: 14px;&quot;&gt;&lt;b&gt;&lt;br&gt;&lt;/b&gt;&lt;/font&gt;&lt;/div&gt;M(0)&lt;span style=&quot;white-space: pre;&quot;&gt;&#x9;&lt;/span&gt;&amp;nbsp; &amp;nbsp; &amp;nbsp; &amp;nbsp; &amp;nbsp; &amp;nbsp; &amp;nbsp; 1(1)&lt;/b&gt;&lt;/font&gt;" style="text;html=1;align=center;verticalAlign=middle;whiteSpace=wrap;rounded=0;labelBackgroundColor=none;fontColor=#1D3557;" parent="1" vertex="1">
          <mxGeometry x="-930" y="197" width="120" height="65" as="geometry" />
        </mxCell>
        <mxCell id="CrBpAQbFGSPJNmV2kl8Q-45" value="&lt;div&gt;&lt;font style=&quot;font-size: 14px;&quot;&gt;&lt;b&gt;are consultație cu&lt;/b&gt;&lt;/font&gt;&lt;/div&gt;&lt;font style=&quot;font-size: 14px;&quot;&gt;&lt;b&gt;&lt;div&gt;&lt;font style=&quot;font-size: 14px;&quot;&gt;&lt;b&gt;&lt;br&gt;&lt;/b&gt;&lt;/font&gt;&lt;/div&gt;M(0)&lt;span style=&quot;white-space: pre;&quot;&gt;&#x9;&lt;/span&gt;&amp;nbsp; &amp;nbsp; &amp;nbsp; &amp;nbsp; &amp;nbsp; &amp;nbsp; &amp;nbsp; &amp;nbsp; &amp;nbsp; M(0)&lt;/b&gt;&lt;/font&gt;" style="text;html=1;align=center;verticalAlign=middle;whiteSpace=wrap;rounded=0;labelBackgroundColor=none;fontColor=#1D3557;" parent="1" vertex="1">
          <mxGeometry x="-630" y="194.5" width="150" height="65" as="geometry" />
        </mxCell>
        <mxCell id="CrBpAQbFGSPJNmV2kl8Q-46" value="&lt;div&gt;&lt;font style=&quot;font-size: 14px;&quot;&gt;&lt;b&gt;&amp;nbsp; &amp;nbsp; &amp;nbsp; &amp;nbsp; &amp;nbsp; &amp;nbsp; &amp;nbsp; &amp;nbsp; &amp;nbsp; &amp;nbsp; aparține&lt;/b&gt;&lt;/font&gt;&lt;/div&gt;&lt;font style=&quot;font-size: 14px;&quot;&gt;&lt;b&gt;&lt;div&gt;&lt;font style=&quot;font-size: 14px;&quot;&gt;&lt;b&gt;&lt;br&gt;&lt;/b&gt;&lt;/font&gt;&lt;/div&gt;M(0)&lt;span style=&quot;white-space: pre;&quot;&gt;&#x9;&lt;/span&gt;&amp;nbsp; &amp;nbsp; &amp;nbsp; &amp;nbsp; &amp;nbsp; &amp;nbsp; &amp;nbsp; &amp;nbsp; &amp;nbsp; &amp;nbsp; &amp;nbsp; &amp;nbsp; &amp;nbsp; &amp;nbsp; &amp;nbsp; 1(1)&lt;/b&gt;&lt;/font&gt;" style="text;html=1;align=center;verticalAlign=middle;whiteSpace=wrap;rounded=0;labelBackgroundColor=none;fontColor=#1D3557;" parent="1" vertex="1">
          <mxGeometry x="-310" y="154.5" width="190" height="65" as="geometry" />
        </mxCell>
        <mxCell id="CrBpAQbFGSPJNmV2kl8Q-54" value="&lt;span style=&quot;font-size: 14px;&quot;&gt;&lt;b&gt;M(0)&lt;/b&gt;&lt;/span&gt;&lt;div&gt;&lt;span style=&quot;font-size: 14px;&quot;&gt;&lt;b&gt;&lt;br&gt;&lt;/b&gt;&lt;/span&gt;&lt;/div&gt;&lt;div&gt;&lt;span style=&quot;font-size: 14px;&quot;&gt;&lt;b&gt;&lt;br&gt;&lt;/b&gt;&lt;/span&gt;&lt;/div&gt;&lt;div&gt;&lt;span style=&quot;font-size: 14px;&quot;&gt;&lt;b&gt;urmează&amp;nbsp; &amp;nbsp; &amp;nbsp; &amp;nbsp; &amp;nbsp; &amp;nbsp; &amp;nbsp; &amp;nbsp; &amp;nbsp; &amp;nbsp; &amp;nbsp; &amp;nbsp; &amp;nbsp; &amp;nbsp;&amp;nbsp;&lt;/b&gt;&lt;/span&gt;&lt;/div&gt;&lt;div&gt;&lt;br&gt;&lt;/div&gt;&lt;div&gt;&lt;span style=&quot;font-size: 14px;&quot;&gt;&lt;b&gt;1(0)&lt;/b&gt;&lt;/span&gt;&lt;/div&gt;" style="text;html=1;align=center;verticalAlign=middle;whiteSpace=wrap;rounded=0;labelBackgroundColor=none;fontColor=#1D3557;" parent="1" vertex="1">
          <mxGeometry x="-470" y="307" width="180" height="65" as="geometry" />
        </mxCell>
        <mxCell id="CrBpAQbFGSPJNmV2kl8Q-57" value="&lt;span style=&quot;font-size: 14px;&quot;&gt;&lt;b&gt;1(1)&lt;/b&gt;&lt;/span&gt;&lt;div&gt;&lt;br&gt;&lt;/div&gt;&lt;div&gt;&lt;span style=&quot;font-size: 14px;&quot;&gt;&lt;b&gt;&amp;nbsp; &amp;nbsp; &amp;nbsp; &amp;nbsp; &amp;nbsp; &amp;nbsp; &amp;nbsp; &amp;nbsp; &amp;nbsp; &amp;nbsp; are&amp;nbsp;&lt;/b&gt;&lt;/span&gt;&lt;/div&gt;&lt;div&gt;&lt;br&gt;&lt;/div&gt;&lt;div&gt;&lt;br&gt;&lt;/div&gt;&lt;div&gt;&lt;span style=&quot;font-size: 14px;&quot;&gt;&lt;b&gt;M(0)&lt;/b&gt;&lt;/span&gt;&lt;/div&gt;" style="text;html=1;align=center;verticalAlign=middle;whiteSpace=wrap;rounded=0;labelBackgroundColor=none;fontColor=#1D3557;" parent="1" vertex="1">
          <mxGeometry x="-800" y="307" width="120" height="65" as="geometry" />
        </mxCell>
        <mxCell id="CrBpAQbFGSPJNmV2kl8Q-58" value="&lt;span style=&quot;font-size: 14px;&quot;&gt;&lt;b&gt;1(1)&lt;/b&gt;&lt;/span&gt;&lt;div&gt;&lt;span style=&quot;font-size: 14px;&quot;&gt;&lt;b&gt;&lt;br&gt;&lt;/b&gt;&lt;/span&gt;&lt;/div&gt;&lt;div&gt;&lt;span style=&quot;font-size: 14px;&quot;&gt;&lt;b&gt;&lt;br&gt;&lt;/b&gt;&lt;/span&gt;&lt;/div&gt;&lt;div&gt;&lt;span style=&quot;font-size: 14px;&quot;&gt;&lt;b&gt;necesită&amp;nbsp; &amp;nbsp; &amp;nbsp; &amp;nbsp; &amp;nbsp; &amp;nbsp; &amp;nbsp; &amp;nbsp; &amp;nbsp; &amp;nbsp; &amp;nbsp; &amp;nbsp; &amp;nbsp; &amp;nbsp; &amp;nbsp;&lt;/b&gt;&lt;/span&gt;&lt;/div&gt;&lt;div&gt;&lt;br&gt;&lt;/div&gt;&lt;div&gt;&lt;span style=&quot;font-size: 14px;&quot;&gt;&lt;b&gt;M(0)&lt;/b&gt;&lt;/span&gt;&lt;/div&gt;" style="text;html=1;align=center;verticalAlign=middle;whiteSpace=wrap;rounded=0;labelBackgroundColor=none;fontColor=#1D3557;" parent="1" vertex="1">
          <mxGeometry x="-810" y="537" width="230" height="60" as="geometry" />
        </mxCell>
      </root>
    </mxGraphModel>
  </diagram>
</mxfile>
